<svg width="48" height="48" viewBox="0 0 48 48" fill="none" xmlns="http://www.w3.org/2000/svg">
<g id="Favicon size used for Chrome browser">
<rect width="48" height="48" fill="#1A141F"/>
<g id="Group">
<path id="Vector" d="M32.2863 36.7909H33.8472V36.998H28.1342V36.7909H29.9011L26.1902 27.2176C24.8946 27.6328 23.3631 28.3143 21.8903 29.4997C19.6227 31.3075 18.2684 33.8272 18.0029 34.5975C17.7971 35.7238 18.15 36.7909 19.0926 36.7909H20.0941V36.998H15.4707V36.7909H16.1479C16.9427 36.7909 17.561 35.3382 18.0324 34.0344C19.711 30.6556 22.5675 28.1663 26.1306 27.04L23.3035 19.7785L24.4225 16.3701C24.4225 16.3701 25.3358 18.889 25.5416 19.393L28.3099 26.5361C28.6342 26.5065 28.9283 26.4769 29.1643 26.4473V26.6249C28.9584 26.6545 28.693 26.6841 28.3695 26.7137L32.2863 36.7909Z" fill="#A88F5D"/>
<path id="Vector_2" d="M33.8471 21.4916C33.8471 26.1742 31.6383 29.9385 28.0752 31.4496L27.7812 31.568C27.4863 31.6863 27.1922 31.7751 26.9268 31.8943L26.4849 32.0127C25.3364 32.3982 24.0997 32.3982 22.9218 32.3982H22.6269C22.332 32.3686 22.4505 32.3686 22.1262 32.3391C21.449 32.3095 20.9777 32.1615 20.6828 32.0423C20.5946 32.0127 20.5064 31.9831 20.4476 31.9535C20.3005 31.8943 20.2417 31.8647 20.1535 31.8351C19.4763 31.5391 18.9168 31.1536 18.4749 30.7384C17.8859 30.2937 17.5322 29.8194 17.2382 29.405C17.1793 29.3458 17.1499 29.257 17.0911 29.1978L17.0323 29.109C16.4728 28.1899 16.1485 27.2124 15.8838 26.6789H15.9132C15.3243 25.1967 15 23.5369 15 21.7291C15 15.6234 18.858 11 24.4239 11C30.5494 11 33.8479 15.4459 33.8479 21.4916H33.8471ZM21.6262 11.7407C18.7991 13.2229 17.6801 17.0457 17.6801 21.5507C17.6801 22.7066 17.7683 23.8625 17.9749 24.9295C19.0352 22.5586 21.6858 21.8771 24.071 21.8771C27.8113 21.8771 29.9311 21.6699 31.1686 21.4324C31.1392 16.8089 29.6076 12.6302 26.3688 11.444C25.868 11.3256 25.2791 11.2664 24.6607 11.2664C23.5417 11.2664 22.3638 11.444 21.8042 11.6815L21.6278 11.7407H21.6262ZM27.8106 31.0648C30.2252 29.3754 31.1972 25.819 31.1972 21.6699C29.9017 21.8771 27.7223 22.0555 24.0702 22.0555C20.8895 22.0555 17.7095 23.4185 17.7095 27.0645C17.7095 28.3979 18.2396 29.8505 19.1528 30.8288C19.241 30.888 19.3881 31.036 19.5947 31.1551C20.1543 31.5111 20.7138 31.7775 21.2439 31.9255C22.0681 32.103 23.0402 32.1622 23.8063 32.1918C24.8372 32.1918 26.8687 31.7175 27.6937 31.1544L27.8113 31.0656L27.8106 31.0648Z" fill="#A88F5D"/>
</g>
</g>
</svg>
