 <svg xmlns="http://www.w3.org/2000/svg" width="50" height="45"
                                        viewBox="0 0 54 52" fill="none">
                                        <g filter="url(#filter0_d_60_770)">
                                            <path
                                                d="M51.8989 22.3094C50.8438 20.8527 49.2253 20.0152 47.4574 20.0152H46.4977V15.5894C46.4977 9.44852 41.6381 4.45252 35.6649 4.45252H24.7108C24.3771 4.45252 24.0391 4.37011 23.7423 4.21865L16.9068 0.703851C16.0099 0.242785 15.0046 9.30724e-07 13.9993 9.30724e-07H9.66622C4.8868 -0.00222644 1 3.99368 1 8.90727V37.8631C1 44.004 5.85958 49 11.8328 49H39.0404C43.8631 49 48.0316 45.8104 49.4442 40.9659L52.7633 27.3432C53.2703 25.6014 52.954 23.7683 51.8989 22.3094ZM5.33311 37.8631V8.90727C5.33311 6.45048 7.27651 4.45252 9.66622 4.45252H13.9993C14.333 4.45252 14.671 4.53493 14.9678 4.6864L21.8033 8.20119C22.7002 8.66226 23.7055 8.90504 24.7108 8.90504H35.6649C39.2484 8.90504 42.1645 11.9031 42.1645 15.5872V20.013H19.6649C15.9817 20.013 12.6929 22.4163 11.4558 26.0714L6.71104 41.9704C5.84875 40.8367 5.33311 39.4112 5.33311 37.8631ZM48.5862 26.1627L45.2671 39.7831C44.4351 42.6319 41.9327 44.5452 39.0404 44.5452H11.8328C11.3821 44.5452 10.9423 44.4985 10.5177 44.4072L15.5744 27.4591C16.1789 25.6705 17.8255 24.4699 19.667 24.4699H47.4596C47.9839 24.4699 48.2894 24.7818 48.4237 24.9689C48.558 25.156 48.7617 25.5458 48.5862 26.1627Z"
                                                fill="white" />
                                        </g>
                                        <defs>
                                            <filter id="filter0_d_60_770" x="0" y="0" width="54" height="52"
                                                filterUnits="userSpaceOnUse" color-interpolation-filters="sRGB">
                                                <feFlood flood-opacity="0" result="BackgroundImageFix" />
                                                <feColorMatrix in="SourceAlpha" type="matrix"
                                                    values="0 0 0 0 0 0 0 0 0 0 0 0 0 0 0 0 0 0 127 0"
                                                    result="hardAlpha" />
                                                <feOffset dy="2" />
                                                <feGaussianBlur stdDeviation="0.5" />
                                                <feComposite in2="hardAlpha" operator="out" />
                                                <feColorMatrix type="matrix"
                                                    values="0 0 0 0 0 0 0 0 0 0 0 0 0 0 0 0 0 0 0.22 0" />
                                                <feBlend mode="normal" in2="BackgroundImageFix"
                                                    result="effect1_dropShadow_60_770" />
                                                <feBlend mode="normal" in="SourceGraphic"
                                                    in2="effect1_dropShadow_60_770" result="shape" />
                                            </filter>
                                        </defs>
                                    </svg>