 <svg xmlns="http://www.w3.org/2000/svg" width="55" height="55" 
                                        viewBox="0 0 55 55" fill="none">
                                        <g filter="url(#filter0_d_60_771)">
                                            <path fill-rule="evenodd" clip-rule="evenodd"
                                                d="M38.4775 1.86227C37.8379 1.00399 37.1474 0.261476 36.0657 0H35.0699C34.9271 0.0696694 34.7793 0.13259 34.6315 0.195499L34.6314 0.195521C34.3071 0.333562 33.9829 0.471545 33.7128 0.680635C32.3597 1.72953 32.217 3.49599 33.3306 4.97602C35.8127 8.27675 38.3001 11.573 40.7874 14.8692L41.9261 16.3782C42.0857 16.5897 42.2523 16.7973 42.435 16.9889C43.5236 18.1336 45.3417 18.2075 46.5231 17.1606C47.7674 16.0588 47.8832 14.3652 46.7925 12.9151C45.7749 11.561 44.7548 10.2089 43.7347 8.85671L43.7339 8.85573L43.7332 8.85474L43.7324 8.85375L43.7317 8.85277L43.7305 8.85118L43.7304 8.85108C41.9753 6.52466 40.2202 4.19825 38.4775 1.86227ZM51.5262 47.0538C52.3245 46.5898 52.7126 45.8483 52.999 45.0229L53 45.0219V44.0259C52.9066 43.8454 52.8205 43.6594 52.7345 43.4734C52.5504 43.0754 52.3663 42.6775 52.1099 42.3333C50.0032 39.5052 47.8787 36.6904 45.7542 33.8757L45.7539 33.8753L45.7536 33.8749L45.7533 33.8745L45.753 33.874C45.0815 32.9844 44.41 32.0947 43.739 31.2046C43.6671 31.1093 43.5929 31.0153 43.5152 30.917L43.5147 30.9163L43.5146 30.9162C43.4762 30.8676 43.437 30.8179 43.3968 30.7665C42.45 31.4805 41.5126 32.1872 40.5763 32.8932L38.6411 34.3523C38.6641 34.3845 38.6861 34.4153 38.7072 34.445L38.7631 34.524L38.7633 34.5242C38.8319 34.6212 38.8927 34.7071 38.9564 34.7914L40.1618 36.3907L40.1621 36.3911L40.1624 36.3915L40.1627 36.3919L40.163 36.3924C42.4351 39.4068 44.7073 42.4215 46.981 45.4341C47.0189 45.4843 47.0567 45.5346 47.0945 45.5849L47.095 45.5857C47.3359 45.9065 47.5774 46.2281 47.8472 46.5229C48.7911 47.5548 50.3208 47.7554 51.5262 47.0538ZM29.0924 44.897C31.146 45.2104 32.08 46.2912 32.081 48.3061C32.081 48.4248 32.0821 48.5434 32.0833 48.662C32.0861 48.9585 32.089 49.2548 32.074 49.5506C32.0341 50.355 31.4424 50.9419 30.6411 50.9938C30.5296 51.0012 30.4175 51.0003 30.3053 50.9994C30.2679 50.9991 30.2305 50.9987 30.1931 50.9987H3.90588C2.5089 50.9987 2 50.4838 2 49.0706V48.2742C2.002 46.2982 2.96092 45.1924 4.98854 44.9C4.98854 44.7281 4.98784 44.5549 4.98714 44.3808C4.98562 44.0047 4.98408 43.6242 4.98954 43.2443C5.02247 41.1645 6.21589 39.5697 8.18762 39.0178C8.61271 38.899 9.07071 38.8551 9.51376 38.8541C14.5259 38.8431 19.5371 38.8431 24.5493 38.8491C27.2484 38.8521 29.0795 40.6834 29.0924 43.376C29.0938 43.704 29.0933 44.032 29.0929 44.3698V44.3706V44.3717V44.3727V44.3738C29.0927 44.5453 29.0924 44.7192 29.0924 44.897ZM29.9956 5.63752L29.9955 5.63739H29.9965L29.9956 5.63752ZM29.9956 5.63752C30.0189 5.66018 30.0474 5.68541 30.0788 5.71319C30.1581 5.78328 30.2556 5.86957 30.3328 5.97172C32.2928 8.56651 34.2498 11.1631 36.2071 13.7602L37.8266 15.9088C38.0471 16.2014 38.2668 16.4944 38.4865 16.7873L38.4879 16.7893L38.4894 16.7912L38.4896 16.7914L38.4897 16.7917C39.0754 17.5726 39.6608 18.3532 40.2593 19.1243C40.4579 19.3798 40.5068 19.5754 40.3421 19.8728C37.8276 24.4137 34.0607 27.276 28.9847 28.4097C28.6953 28.4746 28.5387 28.4197 28.363 28.1862C26.9214 26.2671 25.4777 24.3496 24.0339 22.432C22.144 19.9218 20.2541 17.4116 18.3686 14.8978C18.2669 14.7621 18.206 14.4807 18.2778 14.3479C20.7525 9.71222 24.5722 6.83599 29.6932 5.6813C29.7318 5.67237 29.7712 5.66735 29.8332 5.65945L29.8332 5.65945L29.8333 5.65944C29.875 5.65412 29.9269 5.6475 29.9956 5.63752ZM23.1763 34.0807C22.0268 34.0647 21.2335 33.6086 20.6298 32.8092L19.4802 31.2865L19.4798 31.286C16.9052 27.8758 14.3304 24.4655 11.77 21.0438C10.8041 19.7534 10.9258 18.0917 11.9995 17.0568C13.1021 15.993 14.7415 15.8971 15.9439 16.8492C16.2004 17.0518 16.4239 17.3083 16.6225 17.5708C19.5322 21.4211 22.4399 25.2734 25.3376 29.1336C26.4163 30.5707 26.2766 32.2893 25.0143 33.3711C24.4516 33.8531 23.795 34.0957 23.1773 34.0807H23.1763ZM35.6039 30.3356C35.9991 30.8598 36.4115 31.4067 36.8352 31.9692C37.5576 31.4247 38.2741 30.8849 38.9902 30.3454C39.8596 29.6904 40.7282 29.036 41.6059 28.3744C41.2458 27.8983 40.8948 27.4336 40.5594 26.9897C40.2768 26.6157 40.0054 26.2564 39.7489 25.9173C38.3758 26.9513 37.038 27.9579 35.6927 28.9703L34.9792 29.5071C35.1819 29.7759 35.3904 30.0524 35.6039 30.3356Z"
                                                fill="white" />
                                        </g>
                                        <defs>
                                            <filter id="filter0_d_60_771" x="0" y="0" width="55" height="55"
                                                filterUnits="userSpaceOnUse" color-interpolation-filters="sRGB">
                                                <feFlood flood-opacity="0" result="BackgroundImageFix" />
                                                <feColorMatrix in="SourceAlpha" type="matrix"
                                                    values="0 0 0 0 0 0 0 0 0 0 0 0 0 0 0 0 0 0 127 0" result="hardAlpha" />
                                                <feOffset dy="2" />
                                                <feGaussianBlur stdDeviation="1" />
                                                <feComposite in2="hardAlpha" operator="out" />
                                                <feColorMatrix type="matrix"
                                                    values="0 0 0 0 0 0 0 0 0 0 0 0 0 0 0 0 0 0 0.25 0" />
                                                <feBlend mode="normal" in2="BackgroundImageFix"
                                                    result="effect1_dropShadow_60_771" />
                                                <feBlend mode="normal" in="SourceGraphic" in2="effect1_dropShadow_60_771"
                                                    result="shape" />
                                            </filter>
                                        </defs>
                                    </svg>