<svg style="cursor: pointer" xmlns="http://www.w3.org/2000/svg" width="46" height="40" viewBox="0 0 74 64" fill="none">
    <path d="M0 10C0 4.47715 4.47715 0 10 0H74V64H10C4.47715 64 0 59.5228 0 54V10Z" fill="#D6DFEF" />
    <path d="M35.4075 27.0465L38.0896 24.3635L38.0832 38.5147C38.0832 39.021 38.4936 39.4314 38.9998 39.4314C39.5061 39.4314 39.9165 39.021 39.9165 38.5147L39.9229 24.3791L42.5922 27.0493C42.9564 27.401 43.5366 27.3909 43.8883 27.0267C44.2314 26.6715 44.2314 26.1083 43.8883 25.7531L40.945 22.8061C39.8714 21.7318 38.1302 21.7312 37.0559 22.8048C37.0555 22.8053 37.0551 22.8057 37.0547 22.8061L34.1113 25.7504C33.7596 26.1145 33.7697 26.6948 34.1338 27.0465C34.4891 27.3896 35.0522 27.3896 35.4075 27.0465Z"
        fill="#9CB2D8" />
    <path d="M49.0829 36.667C48.5767 36.667 48.1663 37.0774 48.1663 37.5836V41.2502C48.1663 41.7565 47.7559 42.1669 47.2497 42.1669H30.7499C30.2437 42.1669 29.8333 41.7565 29.8333 41.2502V37.5836C29.8333 37.0774 29.4229 36.667 28.9166 36.667C28.4104 36.667 28 37.0774 28 37.5836V41.2502C28 42.769 29.2312 44.0002 30.75 44.0002H47.2497C48.7684 44.0002 49.9997 42.769 49.9997 41.2502V37.5836C49.9996 37.0774 49.5892 36.667 49.0829 36.667Z"
        fill="#9CB2D8" />
</svg>