  <svg xmlns="http://www.w3.org/2000/svg" width="54" height="45"
                                        viewBox="0 0 63 63" fill="none">
                                        <g filter="url(#filter0_d_60_779)">
                                            <path fill-rule="evenodd" clip-rule="evenodd"
                                                d="M32.1039 59.0015C17.2156 58.9981 4.89703 48.6418 2.44137 34.57C-0.0612798 20.2329 8.29097 6.22649 22.1135 1.55433C25.1146 0.540681 28.1981 0.0405718 31.357 0.000294548C32.631 -0.0164877 33.628 0.685008 34.0191 1.81277C34.3951 2.89522 34.0846 4.15725 33.1178 4.77315C32.5857 5.11215 31.8841 5.33536 31.2513 5.34878C26.1402 5.46458 21.4673 6.91792 17.3549 9.95046C11.4751 14.2853 8.11976 20.1171 7.4685 27.409C6.58561 37.3138 11.7101 46.4803 20.5726 51.0182C34.0544 57.9207 50.6313 50.6641 54.7285 36.0619C55.3311 33.9138 55.598 31.722 55.6349 29.4917C55.6685 27.4778 57.6894 26.2225 59.4636 27.0868C60.5647 27.6221 61.0179 28.5586 60.9994 29.7467C60.9222 34.6673 59.7943 39.3344 57.3672 43.6223C52.8587 51.5938 46.101 56.5546 37.1176 58.441C36.463 58.5786 35.8 58.691 35.1353 58.7565C34.2186 58.847 33.2989 58.9123 32.6405 58.9591C32.4321 58.9739 32.2499 58.9868 32.1023 58.9981L32.1039 59.0015ZM34.1668 20.3203C34.1668 20.9015 34.1675 21.4825 34.1683 22.0635V22.0637C34.1705 23.8063 34.1727 25.5481 34.1551 27.2899C34.15 27.7129 34.2927 27.9176 34.6603 28.0989C37.549 29.522 40.4293 30.9569 43.3063 32.4035C44.4661 32.9875 45.062 34.0851 44.8807 35.2112C44.5735 37.1159 42.7003 38.0809 40.9329 37.2116C39.2573 36.3889 37.5896 35.552 35.9217 34.715C35.1603 34.3329 34.3987 33.9507 33.6364 33.5699C33.2976 33.4005 32.9585 33.2318 32.6194 33.0631L32.6185 33.0626C31.8725 32.6915 31.1264 32.3203 30.3834 31.942C29.4082 31.4469 28.8325 30.6649 28.8291 29.5505C28.8191 24.15 28.8124 18.7495 28.8308 13.349C28.8359 11.9963 29.8446 10.9122 31.1153 10.7679C32.495 10.6118 33.6968 11.3737 34.056 12.6693C34.15 13.0049 34.1601 13.3725 34.1618 13.7249C34.1683 15.4347 34.1677 17.1435 34.1671 18.8529V18.8531L34.1671 18.8855C34.167 19.3631 34.1668 19.8408 34.1668 20.3186V20.3203ZM59.5492 4.40909L53.2078 10.7494L59.5492 17.0897C60.2709 17.8114 60.2709 18.9794 59.5492 19.701C59.1883 20.0619 58.7166 20.2414 58.2433 20.2414C57.77 20.2414 57.2983 20.0619 56.9374 19.701L50.596 13.3607L44.2546 19.701C43.8937 20.0619 43.4221 20.2414 42.9487 20.2414C42.4754 20.2414 42.0037 20.0619 41.6429 19.701C40.9211 18.9794 40.9211 17.8114 41.6429 17.0897L47.9843 10.7494L41.6429 4.40909C40.9211 3.68746 40.9211 2.51942 41.6429 1.79778C42.3646 1.07615 43.5329 1.07615 44.2546 1.79778L50.596 8.1381L56.9374 1.79778C57.6592 1.07615 58.8274 1.07615 59.5492 1.79778C60.2709 2.51942 60.2709 3.68746 59.5492 4.40909Z"
                                                fill="white" />
                                        </g>
                                        <defs>
                                            <filter id="filter0_d_60_779" x="0" y="0" width="63" height="63.002"
                                                filterUnits="userSpaceOnUse" color-interpolation-filters="sRGB">
                                                <feFlood flood-opacity="0" result="BackgroundImageFix" />
                                                <feColorMatrix in="SourceAlpha" type="matrix"
                                                    values="0 0 0 0 0 0 0 0 0 0 0 0 0 0 0 0 0 0 127 0"
                                                    result="hardAlpha" />
                                                <feOffset dy="2" />
                                                <feGaussianBlur stdDeviation="1" />
                                                <feComposite in2="hardAlpha" operator="out" />
                                                <feColorMatrix type="matrix"
                                                    values="0 0 0 0 0 0 0 0 0 0 0 0 0 0 0 0 0 0 0.25 0" />
                                                <feBlend mode="normal" in2="BackgroundImageFix"
                                                    result="effect1_dropShadow_60_779" />
                                                <feBlend mode="normal" in="SourceGraphic"
                                                    in2="effect1_dropShadow_60_779" result="shape" />
                                            </filter>
                                        </defs>
                                    </svg>