<svg xmlns="http://www.w3.org/2000/svg" width="12" height="8" viewBox="0 0 12 8" fill="none">
  <path d="M5.56231 7.31727L0.24831 2.00327C0.126179 1.88052 0.0576172 1.71442 0.0576172 1.54127C0.0576172 1.36811 0.126179 1.20201 0.24831 1.07927L0.63931 0.688266C0.761922 0.565891 0.928078 0.497161 1.10131 0.497161C1.27454 0.497161 1.4407 0.565891 1.56331 0.688266L6.02631 5.15027L10.4943 0.682266C10.6171 0.560134 10.7832 0.491573 10.9563 0.491573C11.1295 0.491573 11.2956 0.560134 11.4183 0.682266L11.8093 1.07327C11.9314 1.19601 12 1.36211 12 1.53527C12 1.70842 11.9314 1.87452 11.8093 1.99727L6.48931 7.31727C6.36593 7.43934 6.19937 7.50781 6.02581 7.50781C5.85225 7.50781 5.68569 7.43934 5.56231 7.31727Z" fill="#C09F5E"/>
</svg>